{"title":"Everything Put Together 2000 DVDRip XviD AC3 titler","uid":8543343,"size":960479968,"categoryP":"video","categoryS":"movies","magnet":"?xt=urn:btih:eeabbea0be83a80430efb64f78cb4c0823170e14&amp;dn=Everything+Put+Together+2000+DVDRip+XviD+AC3+titler&amp;tr=udp%3A%2F%2Ftracker.openbittorrent.com%3A80&amp;tr=udp%3A%2F%2Fopen.demonii.com%3A1337&amp;tr=udp%3A%2F%2Ftracker.coppersurfer.tk%3A6969&amp;tr=udp%3A%2F%2Fexodus.desync.com%3A6969","seeders":0,"leechers":1,"uploader":"movieZ.freak","files":4,"time":1370454527,"description":"SOURCE: DVD-R (vobs) \n\n &lt;a href=&quot;\nhttp://www.imdb.com/title/tt0228277/&quot; rel=&quot;nofollow&quot; target=&quot;_NEW&quot;&gt;\nhttp://www.imdb.com/title/tt0228277/&lt;/a&gt;\n\n &lt;a href=&quot;\nhttp://www.rottentomatoes.com/m/everything_put_together/&quot; rel=&quot;nofollow&quot; target=&quot;_NEW&quot;&gt;\nhttp://www.rottentomatoes.com/m/everything_put_together/&lt;/a&gt;\n\n\n- SAMPLE: Yes\n\n- SUBTITLES: English\n\n- LANGUAGE: English\n\n\nDIRECTOR: Marc Forster\n &lt;a href=&quot;\nhttp://www.imdb.com/name/nm0286975/&quot; rel=&quot;nofollow&quot; target=&quot;_NEW&quot;&gt;\nhttp://www.imdb.com/name/nm0286975/&lt;/a&gt;\n\n\n\nINFO:  EXTREMELY RARE !!! :-)\n\n\nCAST:\n---------\nRadha Mitchell, Megan Mullally, Louis Ferreira, Octavia Spencer, Mark Boone Junior, Alan Ruck, Amy Carlson\n\n\nPLOT:\n------\nMarc Forster directs this chilling psychological drama about a young mother trying to come to terms with the loss of her first born. Angie (Radha Mitchell) and her husband Russ (Justin Louis) live a quiet suburban life. At the film's opening, Angie, along with her best friends Judith (Catherine Lloyd Burns) and Barbie (Megan Mullally), who also happen to be pregnant, gleefully discuss morning sickness and baby showers. After her textbook delivery to a healthy boy, the doctor pulls Russ aside and whispers something in his ear. Angie's worst fears are confirmed when she learns that her child suddenly died, a victim of sudden infant death syndrome. In spite of loving support from her husband and friends, Angie quickly spirals into a deep depression and begins developing morbid obsessions, such as going to morgue to examine her baby, visiting the place where her child's toys are buried, and watching children at play in the park. Shot on digital video, the film features an intense emotionally immediacy. This film was screened at the 2000 Sundance Film Festival.\n\n\nGeneral\n---------\nFormat : AVI\nFormat/Info : Audio Video Interleave\nFile size : 893 MiB\nDuration : 1h 26mn\nOverall bit rate : 1451 Kbps\nWriting application : VirtualDubMod 1.5.10.3\nWriting library : VirtualDub build 32842\n\n\nVideo\n-----------\nFormat : MPEG-4 Visual\nFormat profile : Advanced Simple@L5\nFormat settings, BVOP : 2\nFormat settings, QPel : No\nFormat settings, GMC : No warppoints\nFormat settings, Matrix : Default (H.263)\nCodec ID : XVID\nCodec ID/Hint : XviD\nDuration : 1h 26mn\nBit rate : 1185 Kbps\nWidth : 720 pixels\nHeight : 400 pixels\nDisplay aspect ratio : 16:9\nFrame rate : 25.000 fps\nColor space : YUV\nChroma subsampling : 4:2:0\nBit depth : 8 bits\nScan type : Progressive\nCompression mode : Lossy\nBits/(Pixel*Frame) : 0.165\nStream size : 729 MiB (82%)\nWriting library : XviD 64\n\n\nAudio\n----------\nFormat : AC-3\nFormat/Info : Audio Coding 3\nMode extension : CM (complete main)\nFormat settings, Endianness : Big\nCodec ID : 2000\nDuration : 1h 26mn\nBit rate mode : Constant\nBit rate : 256 Kbps\nChannel(s) : 2 channels\nChannel positions : Front: L R\nSampling rate : 48.0 KHz\nBit depth : 16 bits\nCompression mode : Lossy\nStream size : 158 MiB (18%)\nAlignment : Split accross interleaves\nInterleave, duration : 40 ms (1.00 video frame)\nInterleave, preload duration : 500 ms\n\n","torrent":{"xt":"urn:btih:eeabbea0be83a80430efb64f78cb4c0823170e14","amp;dn":"Everything+Put+Together+2000+DVDRip+XviD+AC3+titler","amp;tr":["udp%3A%2F%2Ftracker.openbittorrent.com%3A80","udp%3A%2F%2Fopen.demonii.com%3A1337","udp%3A%2F%2Ftracker.coppersurfer.tk%3A6969","udp%3A%2F%2Fexodus.desync.com%3A6969"],"infoHash":"eeabbea0be83a80430efb64f78cb4c0823170e14","infoHashBuffer":{"type":"Buffer","data":[238,171,190,160,190,131,168,4,48,239,182,79,120,203,76,8,35,23,14,20]},"announce":[],"urlList":[]}}